<mxfile host="app.diagrams.net" modified="2020-05-23T10:27:41.311Z" agent="5.0 (X11; Linux x86_64) AppleWebKit/537.36 (KHTML, like Gecko) Chrome/76.0.3809.100 Safari/537.36" etag="QM4NONPGcdgxzmWcRJ1j" version="13.1.3" type="github">
  <diagram id="C5RBs43oDa-KdzZeNtuy" name="Page-1">
    <mxGraphModel dx="4063" dy="3438" grid="1" gridSize="10" guides="1" tooltips="1" connect="1" arrows="1" fold="1" page="1" pageScale="1" pageWidth="827" pageHeight="1169" math="0" shadow="0">
      <root>
        <mxCell id="WIyWlLk6GJQsqaUBKTNV-0" />
        <mxCell id="WIyWlLk6GJQsqaUBKTNV-1" parent="WIyWlLk6GJQsqaUBKTNV-0" />
        <UserObject label="Open app" lucidchartObjectId="gAb16.dE1i8r" id="GL6hUhirYXwNvFaNPU7j-0">
          <mxCell style="html=1;whiteSpace=wrap;shape=offPageConnector;fontSize=11;fontColor=#000000;spacing=3;strokeOpacity=100;fillColor=#E6FFCC;" parent="WIyWlLk6GJQsqaUBKTNV-1" vertex="1">
            <mxGeometry x="330" y="-90" width="72" height="72" as="geometry" />
          </mxCell>
        </UserObject>
        <UserObject label="" lucidchartObjectId="pAb1qJruv8-w" id="GL6hUhirYXwNvFaNPU7j-1">
          <mxCell style="html=1;jettySize=18;fontSize=11;strokeOpacity=100;rounded=1;arcSize=0;edgeStyle=orthogonalEdgeStyle;startArrow=none;;endArrow=block;endFill=1;;exitX=0.5;exitY=1.0106718737290548;exitPerimeter=1;entryX=0.5;entryY=-0.008333333333333333;entryPerimeter=1;" parent="WIyWlLk6GJQsqaUBKTNV-1" source="GL6hUhirYXwNvFaNPU7j-0" target="GL6hUhirYXwNvFaNPU7j-3" edge="1">
            <mxGeometry width="100" height="100" relative="1" as="geometry">
              <Array as="points">
                <mxPoint x="366" y="50" />
                <mxPoint x="188" y="50" />
              </Array>
            </mxGeometry>
          </mxCell>
        </UserObject>
        <UserObject label="Init page" lucidchartObjectId="REb1Mheu8V~K" id="GL6hUhirYXwNvFaNPU7j-3">
          <mxCell style="html=1;whiteSpace=wrap;shape=document;fontSize=11;fontColor=#000000;spacing=3;strokeOpacity=100;" parent="WIyWlLk6GJQsqaUBKTNV-1" vertex="1">
            <mxGeometry x="140" y="189" width="96" height="72" as="geometry" />
          </mxCell>
        </UserObject>
        <UserObject label="" lucidchartObjectId="WEb1L68Dy2zB" id="GL6hUhirYXwNvFaNPU7j-4">
          <mxCell style="html=1;jettySize=18;fontSize=11;strokeOpacity=100;rounded=1;arcSize=0;edgeStyle=orthogonalEdgeStyle;startArrow=none;;endArrow=block;endFill=1;;exitX=0.5;exitY=0.9240261873258506;exitPerimeter=1;entryX=-0.00625;entryY=0.6003168425475806;entryPerimeter=1;" parent="WIyWlLk6GJQsqaUBKTNV-1" source="GL6hUhirYXwNvFaNPU7j-3" target="GL6hUhirYXwNvFaNPU7j-20" edge="1">
            <mxGeometry width="100" height="100" relative="1" as="geometry">
              <Array as="points" />
            </mxGeometry>
          </mxCell>
        </UserObject>
        <mxCell id="QTXxaZ0U23KRBkYtwmUl-102" style="edgeStyle=orthogonalEdgeStyle;rounded=0;orthogonalLoop=1;jettySize=auto;html=1;entryX=0;entryY=0.5;entryDx=0;entryDy=0;fillColor=#FFCCFF;" edge="1" parent="WIyWlLk6GJQsqaUBKTNV-1" source="GL6hUhirYXwNvFaNPU7j-6" target="QTXxaZ0U23KRBkYtwmUl-47">
          <mxGeometry relative="1" as="geometry">
            <Array as="points">
              <mxPoint x="944" y="870" />
              <mxPoint x="944" y="1147" />
            </Array>
          </mxGeometry>
        </mxCell>
        <UserObject label="Device Info" lucidchartObjectId="RGb114vR2Q3K" id="GL6hUhirYXwNvFaNPU7j-6">
          <mxCell style="html=1;whiteSpace=wrap;shape=document;fontSize=11;fontColor=#000000;spacing=3;strokeOpacity=100;" parent="WIyWlLk6GJQsqaUBKTNV-1" vertex="1">
            <mxGeometry x="700" y="770" width="167" height="140" as="geometry" />
          </mxCell>
        </UserObject>
        <UserObject label="" lucidchartObjectId="VSb1d301da79" id="GL6hUhirYXwNvFaNPU7j-7">
          <mxCell style="html=1;jettySize=18;fontSize=11;strokeOpacity=100;rounded=1;arcSize=0;edgeStyle=orthogonalEdgeStyle;startArrow=none;;endArrow=block;endFill=1;;exitX=1.00625;exitY=0.5017780961115946;exitPerimeter=1;entryX=-0.00625;entryY=0.5;entryPerimeter=1;" parent="WIyWlLk6GJQsqaUBKTNV-1" source="GL6hUhirYXwNvFaNPU7j-3" target="GL6hUhirYXwNvFaNPU7j-8" edge="1">
            <mxGeometry width="100" height="100" relative="1" as="geometry">
              <Array as="points" />
            </mxGeometry>
          </mxCell>
        </UserObject>
        <UserObject label="QR search" lucidchartObjectId="XSb1YqleU.F." id="GL6hUhirYXwNvFaNPU7j-8">
          <mxCell style="html=1;whiteSpace=wrap;;fontSize=11;fontColor=#000000;spacing=3;strokeOpacity=100;" parent="WIyWlLk6GJQsqaUBKTNV-1" vertex="1">
            <mxGeometry x="270" y="80" width="96" height="31" as="geometry" />
          </mxCell>
        </UserObject>
        <UserObject label="" lucidchartObjectId="0Vb1QZsqYDrt" id="GL6hUhirYXwNvFaNPU7j-9">
          <mxCell style="html=1;jettySize=18;fontSize=11;strokeOpacity=100;rounded=1;arcSize=0;edgeStyle=orthogonalEdgeStyle;startArrow=none;;endArrow=block;endFill=1;;exitX=1.00625;exitY=0.5;exitPerimeter=1;entryX=0.5;entryY=-0.010416666666666725;entryPerimeter=1;" parent="WIyWlLk6GJQsqaUBKTNV-1" source="GL6hUhirYXwNvFaNPU7j-8" target="GL6hUhirYXwNvFaNPU7j-25" edge="1">
            <mxGeometry width="100" height="100" relative="1" as="geometry">
              <Array as="points" />
            </mxGeometry>
          </mxCell>
        </UserObject>
        <UserObject label="Device metadata" lucidchartObjectId="2Vb1.4ObYA0H" id="GL6hUhirYXwNvFaNPU7j-10">
          <mxCell style="html=1;whiteSpace=wrap;shape=document;fontSize=11;fontColor=#000000;spacing=3;strokeOpacity=100;" parent="WIyWlLk6GJQsqaUBKTNV-1" vertex="1">
            <mxGeometry x="700" y="117" width="96" height="72" as="geometry" />
          </mxCell>
        </UserObject>
        <UserObject label="" lucidchartObjectId="XWb1~2wCB0hz" id="GL6hUhirYXwNvFaNPU7j-11">
          <mxCell style="html=1;jettySize=18;fontSize=11;strokeOpacity=100;rounded=1;arcSize=0;edgeStyle=orthogonalEdgeStyle;startArrow=none;;endArrow=block;endFill=1;;exitX=0.5;exitY=0.9240261873258503;exitPerimeter=1;entryX=0.5;entryY=-0.019230769230769232;entryPerimeter=1;" parent="WIyWlLk6GJQsqaUBKTNV-1" source="GL6hUhirYXwNvFaNPU7j-10" target="GL6hUhirYXwNvFaNPU7j-20" edge="1">
            <mxGeometry width="100" height="100" relative="1" as="geometry">
              <Array as="points">
                <mxPoint x="748" y="240" />
                <mxPoint x="503" y="240" />
              </Array>
            </mxGeometry>
          </mxCell>
        </UserObject>
        <UserObject label="" lucidchartObjectId="WZb1zGybYWFF" id="GL6hUhirYXwNvFaNPU7j-14">
          <mxCell style="html=1;jettySize=18;fontSize=11;strokeColor=#7ab648;strokeOpacity=100;strokeWidth=3;rounded=1;arcSize=0;edgeStyle=orthogonalEdgeStyle;startArrow=none;;endArrow=block;endFill=1;;exitX=1.00625;exitY=0.5017780961115942;exitPerimeter=1;entryX=0.5;entryY=0.9240261873258504;entryPerimeter=1;" parent="WIyWlLk6GJQsqaUBKTNV-1" source="GL6hUhirYXwNvFaNPU7j-6" target="GL6hUhirYXwNvFaNPU7j-13" edge="1">
            <mxGeometry width="100" height="100" relative="1" as="geometry">
              <Array as="points">
                <mxPoint x="1069" y="840" />
              </Array>
            </mxGeometry>
          </mxCell>
        </UserObject>
        <UserObject label="" lucidchartObjectId="n2b1Y6_v-S-W" id="GL6hUhirYXwNvFaNPU7j-15">
          <mxCell style="html=1;jettySize=18;fontSize=11;strokeOpacity=100;rounded=1;arcSize=0;edgeStyle=orthogonalEdgeStyle;startArrow=none;;endArrow=block;endFill=1;;exitX=-0.00625;exitY=0.5017780961115942;exitPerimeter=1;entryX=1.00625;entryY=0.5;entryPerimeter=1;" parent="WIyWlLk6GJQsqaUBKTNV-1" source="GL6hUhirYXwNvFaNPU7j-6" target="GL6hUhirYXwNvFaNPU7j-16" edge="1">
            <mxGeometry width="100" height="100" relative="1" as="geometry">
              <Array as="points" />
            </mxGeometry>
          </mxCell>
        </UserObject>
        <UserObject label="Periphery info" lucidchartObjectId="r2b1MGmAWvip" id="GL6hUhirYXwNvFaNPU7j-16">
          <mxCell style="html=1;whiteSpace=wrap;shape=document;fontSize=11;fontColor=#000000;spacing=3;strokeOpacity=100;" parent="WIyWlLk6GJQsqaUBKTNV-1" vertex="1">
            <mxGeometry x="393" y="804" width="96" height="72" as="geometry" />
          </mxCell>
        </UserObject>
        <mxCell id="GL6hUhirYXwNvFaNPU7j-17" value="" style="group;dropTarget=0;" parent="WIyWlLk6GJQsqaUBKTNV-1" vertex="1">
          <mxGeometry x="455" y="276" width="257" height="108" as="geometry" />
        </mxCell>
        <UserObject label="Connecting" lucidchartObjectId="QBb1JAbWSNj~" id="GL6hUhirYXwNvFaNPU7j-18">
          <mxCell style="html=1;whiteSpace=wrap;shape=tape;size=0.2;fontSize=11;fontColor=#000000;spacing=3;strokeOpacity=100;fillOpacity=100;fillColor=#c1e4f7;" parent="GL6hUhirYXwNvFaNPU7j-17" vertex="1">
            <mxGeometry x="161" width="96" height="72" as="geometry" />
          </mxCell>
        </UserObject>
        <UserObject label="Aboard" lucidchartObjectId="hYb1lBM8qsY-" id="GL6hUhirYXwNvFaNPU7j-19">
          <mxCell style="html=1;whiteSpace=wrap;rounded=1;arcSize=50;fontSize=11;fontColor=#000000;spacing=3;strokeOpacity=100;fillOpacity=100;fillColor=#c1e4f7;" parent="GL6hUhirYXwNvFaNPU7j-17" vertex="1">
            <mxGeometry x="58" y="77" width="96" height="31" as="geometry" />
          </mxCell>
        </UserObject>
        <UserObject label="BLE serch" lucidchartObjectId="DAb1opJ~t_yY" id="GL6hUhirYXwNvFaNPU7j-20">
          <mxCell style="html=1;whiteSpace=wrap;;fontSize=11;fontColor=#000000;spacing=3;strokeOpacity=100;fillOpacity=100;fillColor=#c1e4f7;" parent="GL6hUhirYXwNvFaNPU7j-17" vertex="1">
            <mxGeometry y="20" width="96" height="31" as="geometry" />
          </mxCell>
        </UserObject>
        <UserObject label="" lucidchartObjectId="HBb1jw3.Bp_y" id="GL6hUhirYXwNvFaNPU7j-2">
          <mxCell style="html=1;jettySize=18;fontSize=11;strokeOpacity=100;rounded=1;arcSize=0;edgeStyle=orthogonalEdgeStyle;startArrow=none;;endArrow=block;endFill=1;;exitX=1.00625;exitY=0.5;exitPerimeter=1;entryX=-0.006250000000000089;entryY=0.5;entryPerimeter=1;" parent="GL6hUhirYXwNvFaNPU7j-17" source="GL6hUhirYXwNvFaNPU7j-20" target="GL6hUhirYXwNvFaNPU7j-18" edge="1">
            <mxGeometry width="100" height="100" relative="1" as="geometry">
              <Array as="points" />
            </mxGeometry>
          </mxCell>
        </UserObject>
        <UserObject label="" lucidchartObjectId="cGb1ASjnTJVs" id="GL6hUhirYXwNvFaNPU7j-5">
          <mxCell style="html=1;jettySize=18;fontSize=11;strokeOpacity=100;rounded=1;arcSize=0;edgeStyle=orthogonalEdgeStyle;startArrow=none;;endArrow=block;endFill=1;;exitX=0.5;exitY=0.9240261873258504;exitPerimeter=1;entryX=1.0062500535987735;entryY=0.5;entryPerimeter=1;" parent="GL6hUhirYXwNvFaNPU7j-17" source="GL6hUhirYXwNvFaNPU7j-18" target="GL6hUhirYXwNvFaNPU7j-19" edge="1">
            <mxGeometry width="100" height="100" relative="1" as="geometry">
              <Array as="points" />
            </mxGeometry>
          </mxCell>
        </UserObject>
        <UserObject label="Qr code link redirect" lucidchartObjectId="x6b1XUzFKJgQ" id="GL6hUhirYXwNvFaNPU7j-21">
          <mxCell style="html=1;whiteSpace=wrap;shape=offPageConnector;fontSize=11;fontColor=#000000;spacing=3;strokeOpacity=100;fillColor=#E6FFCC;" parent="WIyWlLk6GJQsqaUBKTNV-1" vertex="1">
            <mxGeometry x="417" y="-90" width="72" height="72" as="geometry" />
          </mxCell>
        </UserObject>
        <UserObject label="" lucidchartObjectId="A6b1VVpGgA1R" id="GL6hUhirYXwNvFaNPU7j-22">
          <mxCell style="html=1;jettySize=18;fontSize=11;strokeOpacity=100;rounded=1;arcSize=0;edgeStyle=orthogonalEdgeStyle;startArrow=none;;endArrow=block;endFill=1;;exitX=0.5;exitY=1.0106718737290548;exitPerimeter=1;entryX=0.5;entryY=-0.008333333333333333;entryPerimeter=1;" parent="WIyWlLk6GJQsqaUBKTNV-1" source="GL6hUhirYXwNvFaNPU7j-21" target="GL6hUhirYXwNvFaNPU7j-10" edge="1">
            <mxGeometry width="100" height="100" relative="1" as="geometry">
              <Array as="points" />
            </mxGeometry>
          </mxCell>
        </UserObject>
        <UserObject label="Flash mode" lucidchartObjectId="xkc1F3SRqymh" id="GL6hUhirYXwNvFaNPU7j-24">
          <mxCell style="html=1;whiteSpace=wrap;rhombus;fontSize=11;fontColor=#000000;spacing=3;strokeOpacity=100;fillOpacity=100;fillColor=#c1e4f7;" parent="WIyWlLk6GJQsqaUBKTNV-1" vertex="1">
            <mxGeometry x="758" y="415" width="96" height="72" as="geometry" />
          </mxCell>
        </UserObject>
        <UserObject label="Format check" lucidchartObjectId="nlc1-krD1DWh" id="GL6hUhirYXwNvFaNPU7j-25">
          <mxCell style="html=1;whiteSpace=wrap;rhombus;fontSize=11;fontColor=#000000;spacing=3;strokeOpacity=100;" parent="WIyWlLk6GJQsqaUBKTNV-1" vertex="1">
            <mxGeometry x="455" y="117" width="96" height="72" as="geometry" />
          </mxCell>
        </UserObject>
        <UserObject label="" lucidchartObjectId="gmc12S9NR1w8" id="GL6hUhirYXwNvFaNPU7j-26">
          <mxCell style="html=1;jettySize=18;fontSize=11;fontColor=#000000;strokeOpacity=100;rounded=1;arcSize=0;edgeStyle=orthogonalEdgeStyle;startArrow=none;;endArrow=block;endFill=1;;exitX=1.0104166666666665;exitY=0.5;exitPerimeter=1;entryX=-0.00625;entryY=0.5;entryPerimeter=1;" parent="WIyWlLk6GJQsqaUBKTNV-1" source="GL6hUhirYXwNvFaNPU7j-25" target="GL6hUhirYXwNvFaNPU7j-10" edge="1">
            <mxGeometry width="100" height="100" relative="1" as="geometry">
              <Array as="points" />
            </mxGeometry>
          </mxCell>
        </UserObject>
        <mxCell id="GL6hUhirYXwNvFaNPU7j-27" value="Yes" style="text;html=1;resizable=0;labelBackgroundColor=#ffffff;align=center;verticalAlign=middle;fontColor=#000000;;fontSize=11;" parent="GL6hUhirYXwNvFaNPU7j-26" vertex="1">
          <mxGeometry relative="1" as="geometry" />
        </mxCell>
        <UserObject label="" lucidchartObjectId="pmc1G.q.DRIs" id="GL6hUhirYXwNvFaNPU7j-28">
          <mxCell style="html=1;jettySize=18;fontSize=11;fontColor=#000000;strokeOpacity=100;rounded=1;arcSize=0;edgeStyle=orthogonalEdgeStyle;startArrow=none;;endArrow=block;endFill=1;;exitX=-0.01041666666666643;exitY=0.5;exitPerimeter=1;entryX=0.5;entryY=1.0192307692307692;entryPerimeter=1;" parent="WIyWlLk6GJQsqaUBKTNV-1" source="GL6hUhirYXwNvFaNPU7j-25" target="GL6hUhirYXwNvFaNPU7j-8" edge="1">
            <mxGeometry width="100" height="100" relative="1" as="geometry">
              <Array as="points" />
            </mxGeometry>
          </mxCell>
        </UserObject>
        <mxCell id="GL6hUhirYXwNvFaNPU7j-29" value="No" style="text;html=1;resizable=0;labelBackgroundColor=#ffffff;align=center;verticalAlign=middle;fontColor=#000000;;fontSize=11;" parent="GL6hUhirYXwNvFaNPU7j-28" vertex="1">
          <mxGeometry relative="1" as="geometry" />
        </mxCell>
        <UserObject label="Change to standart mode dialog" lucidchartObjectId="Nnc1_WtVSHU~" id="GL6hUhirYXwNvFaNPU7j-30">
          <mxCell style="html=1;whiteSpace=wrap;rhombus;fontSize=11;fontColor=#000000;spacing=3;strokeOpacity=100;fillOpacity=100;fillColor=#c1e4f7;" parent="WIyWlLk6GJQsqaUBKTNV-1" vertex="1">
            <mxGeometry x="828" y="487" width="96" height="72" as="geometry" />
          </mxCell>
        </UserObject>
        <UserObject label="" lucidchartObjectId="foc1iDQExSN_" id="GL6hUhirYXwNvFaNPU7j-31">
          <mxCell style="html=1;jettySize=18;fontSize=11;fontColor=#000000;strokeOpacity=100;rounded=1;arcSize=0;edgeStyle=orthogonalEdgeStyle;startArrow=none;;endArrow=block;endFill=1;;exitX=1.0104166666666672;exitY=0.5;exitPerimeter=1;entryX=0.5;entryY=-0.010416666666666666;entryPerimeter=1;" parent="WIyWlLk6GJQsqaUBKTNV-1" source="GL6hUhirYXwNvFaNPU7j-24" target="GL6hUhirYXwNvFaNPU7j-30" edge="1">
            <mxGeometry width="100" height="100" relative="1" as="geometry">
              <Array as="points" />
            </mxGeometry>
          </mxCell>
        </UserObject>
        <mxCell id="GL6hUhirYXwNvFaNPU7j-32" value="Yes" style="text;html=1;resizable=0;labelBackgroundColor=#ffffff;align=center;verticalAlign=middle;fontColor=#000000;;fontSize=11;" parent="GL6hUhirYXwNvFaNPU7j-31" vertex="1">
          <mxGeometry relative="1" as="geometry" />
        </mxCell>
        <UserObject label="" lucidchartObjectId="7oc1d.k-DmCl" id="GL6hUhirYXwNvFaNPU7j-33">
          <mxCell style="html=1;jettySize=18;fontSize=11;fontColor=#000000;strokeOpacity=100;rounded=1;arcSize=0;edgeStyle=orthogonalEdgeStyle;startArrow=none;;endArrow=block;endFill=1;;exitX=-0.01041666666666714;exitY=0.5;exitPerimeter=1;entryX=0.5;entryY=-0.008333333333333333;entryPerimeter=1;" parent="WIyWlLk6GJQsqaUBKTNV-1" source="GL6hUhirYXwNvFaNPU7j-24" target="GL6hUhirYXwNvFaNPU7j-6" edge="1">
            <mxGeometry width="100" height="100" relative="1" as="geometry">
              <Array as="points">
                <mxPoint x="740" y="451" />
                <mxPoint x="740" y="750" />
                <mxPoint x="783" y="750" />
              </Array>
            </mxGeometry>
          </mxCell>
        </UserObject>
        <mxCell id="GL6hUhirYXwNvFaNPU7j-34" value="No" style="text;html=1;resizable=0;labelBackgroundColor=#ffffff;align=center;verticalAlign=middle;fontColor=#000000;;fontSize=11;" parent="GL6hUhirYXwNvFaNPU7j-33" vertex="1">
          <mxGeometry relative="1" as="geometry" />
        </mxCell>
        <UserObject label="" lucidchartObjectId="cpc1Rk8ihCmp" id="GL6hUhirYXwNvFaNPU7j-35">
          <mxCell style="html=1;jettySize=18;fontSize=11;fontColor=#000000;strokeOpacity=100;rounded=1;arcSize=0;edgeStyle=orthogonalEdgeStyle;startArrow=none;;endArrow=block;endFill=1;;exitX=-0.01041666666666714;exitY=0.5;exitPerimeter=1;entryX=0.5;entryY=-0.008333333333333333;entryPerimeter=1;" parent="WIyWlLk6GJQsqaUBKTNV-1" source="GL6hUhirYXwNvFaNPU7j-30" target="GL6hUhirYXwNvFaNPU7j-6" edge="1">
            <mxGeometry width="100" height="100" relative="1" as="geometry">
              <Array as="points">
                <mxPoint x="803" y="523" />
                <mxPoint x="803" y="750" />
                <mxPoint x="783" y="750" />
              </Array>
            </mxGeometry>
          </mxCell>
        </UserObject>
        <mxCell id="GL6hUhirYXwNvFaNPU7j-36" value="Yes" style="text;html=1;resizable=0;labelBackgroundColor=#ffffff;align=center;verticalAlign=middle;fontColor=#000000;;fontSize=11;" parent="GL6hUhirYXwNvFaNPU7j-35" vertex="1">
          <mxGeometry x="-0.28385698773176404" relative="1" as="geometry">
            <mxPoint x="3" y="17.86" as="offset" />
          </mxGeometry>
        </mxCell>
        <UserObject label="" lucidchartObjectId="xpc1-6ZbTqgh" id="GL6hUhirYXwNvFaNPU7j-37">
          <mxCell style="html=1;jettySize=18;fontSize=11;fontColor=#000000;strokeColor=#ef8d22;strokeOpacity=100;strokeWidth=3;rounded=1;arcSize=0;edgeStyle=orthogonalEdgeStyle;startArrow=none;;endArrow=block;endFill=1;;exitX=1.0104166666666672;exitY=0.5;exitPerimeter=1;entryX=-0.00625;entryY=0.5;entryPerimeter=1;" parent="WIyWlLk6GJQsqaUBKTNV-1" source="GL6hUhirYXwNvFaNPU7j-30" target="GL6hUhirYXwNvFaNPU7j-13" edge="1">
            <mxGeometry width="100" height="100" relative="1" as="geometry">
              <Array as="points" />
            </mxGeometry>
          </mxCell>
        </UserObject>
        <mxCell id="GL6hUhirYXwNvFaNPU7j-38" value="No" style="text;html=1;resizable=0;labelBackgroundColor=#ffffff;align=center;verticalAlign=middle;fontColor=#000000;;fontSize=11;" parent="GL6hUhirYXwNvFaNPU7j-37" vertex="1">
          <mxGeometry relative="1" as="geometry" />
        </mxCell>
        <UserObject label="" lucidchartObjectId="5zc1fo68J_dF" id="GL6hUhirYXwNvFaNPU7j-51">
          <mxCell style="html=1;jettySize=18;fontSize=11;strokeOpacity=100;rounded=1;arcSize=0;edgeStyle=orthogonalEdgeStyle;startArrow=none;;endArrow=block;endFill=1;;exitX=1.00625;exitY=0.5;exitPerimeter=1;entryX=-0.006025851010495497;entryY=0.5;entryPerimeter=1;" parent="WIyWlLk6GJQsqaUBKTNV-1" source="GL6hUhirYXwNvFaNPU7j-18" target="GL6hUhirYXwNvFaNPU7j-52" edge="1">
            <mxGeometry width="100" height="100" relative="1" as="geometry">
              <Array as="points" />
            </mxGeometry>
          </mxCell>
        </UserObject>
        <UserObject label="Deviice connected" lucidchartObjectId="hAc1BbnnDQS3" id="GL6hUhirYXwNvFaNPU7j-52">
          <mxCell style="html=1;whiteSpace=wrap;ellipse;fontSize=11;fontColor=#000000;spacing=3;strokeOpacity=100;fillOpacity=100;fillColor=#c1e4f7;" parent="WIyWlLk6GJQsqaUBKTNV-1" vertex="1">
            <mxGeometry x="756" y="276" width="100" height="72" as="geometry" />
          </mxCell>
        </UserObject>
        <UserObject label="" lucidchartObjectId="PAc1war852pi" id="GL6hUhirYXwNvFaNPU7j-53">
          <mxCell style="html=1;jettySize=18;fontSize=11;strokeOpacity=100;rounded=1;arcSize=0;edgeStyle=orthogonalEdgeStyle;startArrow=none;;endArrow=block;endFill=1;;exitX=0.49999999999999933;exitY=1.0083333504745011;exitPerimeter=1;entryX=0.5;entryY=-0.010416666666666666;entryPerimeter=1;" parent="WIyWlLk6GJQsqaUBKTNV-1" source="GL6hUhirYXwNvFaNPU7j-52" target="GL6hUhirYXwNvFaNPU7j-24" edge="1">
            <mxGeometry width="100" height="100" relative="1" as="geometry">
              <Array as="points" />
            </mxGeometry>
          </mxCell>
        </UserObject>
        <mxCell id="QTXxaZ0U23KRBkYtwmUl-1" style="edgeStyle=orthogonalEdgeStyle;rounded=0;orthogonalLoop=1;jettySize=auto;html=1;entryX=1;entryY=0.5;entryDx=0;entryDy=0;" edge="1" parent="WIyWlLk6GJQsqaUBKTNV-1" source="QTXxaZ0U23KRBkYtwmUl-2" target="GL6hUhirYXwNvFaNPU7j-10">
          <mxGeometry relative="1" as="geometry">
            <mxPoint x="828" y="696" as="sourcePoint" />
            <mxPoint x="928" y="153" as="targetPoint" />
            <Array as="points" />
          </mxGeometry>
        </mxCell>
        <mxCell id="QTXxaZ0U23KRBkYtwmUl-2" value="&lt;span style=&quot;font-size: 11px&quot;&gt;With BLE connect diable&lt;/span&gt;" style="text;html=1;strokeColor=none;fillColor=none;align=center;verticalAlign=middle;whiteSpace=wrap;rounded=0;" vertex="1" parent="WIyWlLk6GJQsqaUBKTNV-1">
          <mxGeometry x="828" y="143" width="73" height="20" as="geometry" />
        </mxCell>
        <mxCell id="QTXxaZ0U23KRBkYtwmUl-5" style="edgeStyle=orthogonalEdgeStyle;rounded=0;orthogonalLoop=1;jettySize=auto;html=1;entryX=1;entryY=0.5;entryDx=0;entryDy=0;" edge="1" parent="WIyWlLk6GJQsqaUBKTNV-1" source="GL6hUhirYXwNvFaNPU7j-6" target="QTXxaZ0U23KRBkYtwmUl-2">
          <mxGeometry relative="1" as="geometry">
            <mxPoint x="828" y="696" as="sourcePoint" />
            <mxPoint x="796" y="153" as="targetPoint" />
            <Array as="points">
              <mxPoint x="940" y="810" />
              <mxPoint x="940" y="153" />
            </Array>
          </mxGeometry>
        </mxCell>
        <mxCell id="QTXxaZ0U23KRBkYtwmUl-29" style="edgeStyle=orthogonalEdgeStyle;rounded=0;orthogonalLoop=1;jettySize=auto;html=1;entryX=0.5;entryY=0;entryDx=0;entryDy=0;" edge="1" parent="WIyWlLk6GJQsqaUBKTNV-1" source="QTXxaZ0U23KRBkYtwmUl-27" target="GL6hUhirYXwNvFaNPU7j-20">
          <mxGeometry relative="1" as="geometry">
            <Array as="points">
              <mxPoint x="2440" y="240" />
              <mxPoint x="503" y="240" />
            </Array>
          </mxGeometry>
        </mxCell>
        <mxCell id="QTXxaZ0U23KRBkYtwmUl-44" value="" style="group" vertex="1" connectable="0" parent="WIyWlLk6GJQsqaUBKTNV-1">
          <mxGeometry x="1021" y="280" width="1479" height="370" as="geometry" />
        </mxCell>
        <UserObject label="Flash" lucidchartObjectId="cZb11DL4E6sH" id="GL6hUhirYXwNvFaNPU7j-13">
          <mxCell style="html=1;whiteSpace=wrap;shape=document;fontSize=11;fontColor=#000000;spacing=3;strokeOpacity=100;fillOpacity=100;fillColor=#FFCCFF;" parent="QTXxaZ0U23KRBkYtwmUl-44" vertex="1">
            <mxGeometry y="207" width="96" height="72" as="geometry" />
          </mxCell>
        </UserObject>
        <UserObject label="" lucidchartObjectId="nsc1xcLN2bXH" id="GL6hUhirYXwNvFaNPU7j-39">
          <mxCell style="html=1;jettySize=18;fontSize=11;strokeColor=#7ab648;strokeOpacity=100;rounded=1;arcSize=0;edgeStyle=orthogonalEdgeStyle;startArrow=none;;endArrow=block;endFill=1;;exitX=0.47327787335478033;exitY=-0.008333333333333333;exitPerimeter=1;entryX=-0.00625;entryY=0.5;entryPerimeter=1;fillColor=#FFCCFF;" parent="QTXxaZ0U23KRBkYtwmUl-44" source="GL6hUhirYXwNvFaNPU7j-13" target="GL6hUhirYXwNvFaNPU7j-40" edge="1">
            <mxGeometry width="100" height="100" relative="1" as="geometry">
              <Array as="points" />
            </mxGeometry>
          </mxCell>
        </UserObject>
        <UserObject label="Select Fimware (Filtered)" lucidchartObjectId="Fsc14VxkzKG2" id="GL6hUhirYXwNvFaNPU7j-40">
          <mxCell style="html=1;whiteSpace=wrap;;fontSize=11;fontColor=#000000;spacing=3;strokeColor=#7ab648;strokeOpacity=100;fillOpacity=100;fillColor=#FFCCFF;" parent="QTXxaZ0U23KRBkYtwmUl-44" vertex="1">
            <mxGeometry x="136" y="95" width="96" height="45" as="geometry" />
          </mxCell>
        </UserObject>
        <UserObject label="" lucidchartObjectId="qtc1_cxxaG6d" id="GL6hUhirYXwNvFaNPU7j-41">
          <mxCell style="html=1;jettySize=18;fontSize=11;strokeOpacity=100;rounded=1;arcSize=0;edgeStyle=orthogonalEdgeStyle;startArrow=none;;endArrow=block;endFill=1;;exitX=1.00625;exitY=0.49999999947963353;exitPerimeter=1;entryX=-0.00625;entryY=0.5;entryPerimeter=1;fillColor=#FFCCFF;" parent="QTXxaZ0U23KRBkYtwmUl-44" source="GL6hUhirYXwNvFaNPU7j-40" target="GL6hUhirYXwNvFaNPU7j-58" edge="1">
            <mxGeometry width="100" height="100" relative="1" as="geometry">
              <Array as="points" />
            </mxGeometry>
          </mxCell>
        </UserObject>
        <UserObject label="Change mode" lucidchartObjectId="stc146HHgeyq" id="GL6hUhirYXwNvFaNPU7j-42">
          <mxCell style="html=1;whiteSpace=wrap;;fontSize=11;fontColor=#000000;spacing=3;strokeOpacity=100;fillOpacity=100;fillColor=#FFCCFF;" parent="QTXxaZ0U23KRBkYtwmUl-44" vertex="1">
            <mxGeometry x="435" y="126" width="96" height="32" as="geometry" />
          </mxCell>
        </UserObject>
        <UserObject label="" lucidchartObjectId="Utc1b4t28WSP" id="GL6hUhirYXwNvFaNPU7j-43">
          <mxCell style="html=1;jettySize=18;fontSize=11;strokeOpacity=100;rounded=1;arcSize=0;edgeStyle=orthogonalEdgeStyle;startArrow=none;;endArrow=block;endFill=1;;exitX=1.00625;exitY=0.4999999994796336;exitPerimeter=1;entryX=0.0026063642832886203;entryY=0.5130230309499544;entryPerimeter=1;fillColor=#FFCCFF;" parent="QTXxaZ0U23KRBkYtwmUl-44" source="GL6hUhirYXwNvFaNPU7j-42" target="GL6hUhirYXwNvFaNPU7j-47" edge="1">
            <mxGeometry width="100" height="100" relative="1" as="geometry">
              <Array as="points" />
            </mxGeometry>
          </mxCell>
        </UserObject>
        <UserObject label="Select Fimware  (Unfiltered)" lucidchartObjectId="Ovc1moxMp1Z." id="GL6hUhirYXwNvFaNPU7j-44">
          <mxCell style="html=1;whiteSpace=wrap;;fontSize=11;fontColor=#000000;spacing=3;strokeColor=#ef8d22;strokeOpacity=100;fillOpacity=100;fillColor=#FFCCFF;" parent="QTXxaZ0U23KRBkYtwmUl-44" vertex="1">
            <mxGeometry x="136" y="148.5" width="96" height="45" as="geometry" />
          </mxCell>
        </UserObject>
        <UserObject label="" lucidchartObjectId="ewc1yRSpeSlj" id="GL6hUhirYXwNvFaNPU7j-45">
          <mxCell style="html=1;jettySize=18;fontSize=11;strokeColor=#ef8d22;strokeOpacity=100;rounded=1;arcSize=0;edgeStyle=orthogonalEdgeStyle;startArrow=none;;endArrow=block;endFill=1;;exitX=0.5;exitY=-0.008333333333333333;exitPerimeter=1;entryX=-0.00625;entryY=0.4999999999999997;entryPerimeter=1;fillColor=#FFCCFF;" parent="QTXxaZ0U23KRBkYtwmUl-44" source="GL6hUhirYXwNvFaNPU7j-13" target="GL6hUhirYXwNvFaNPU7j-44" edge="1">
            <mxGeometry width="100" height="100" relative="1" as="geometry">
              <Array as="points" />
            </mxGeometry>
          </mxCell>
        </UserObject>
        <UserObject label="" lucidchartObjectId="6wc1sW5~_4n2" id="GL6hUhirYXwNvFaNPU7j-46">
          <mxCell style="html=1;jettySize=18;fontSize=11;strokeOpacity=100;rounded=1;arcSize=0;edgeStyle=orthogonalEdgeStyle;startArrow=none;;endArrow=block;endFill=1;;exitX=1.00625;exitY=0.4999999999999997;exitPerimeter=1;entryX=-0.00625;entryY=0.5;entryPerimeter=1;fillColor=#FFCCFF;" parent="QTXxaZ0U23KRBkYtwmUl-44" source="GL6hUhirYXwNvFaNPU7j-44" target="GL6hUhirYXwNvFaNPU7j-58" edge="1">
            <mxGeometry width="100" height="100" relative="1" as="geometry">
              <Array as="points" />
            </mxGeometry>
          </mxCell>
        </UserObject>
        <UserObject label="Auto-reconnect success" lucidchartObjectId="3xc1WX~UaEFU" id="GL6hUhirYXwNvFaNPU7j-47">
          <mxCell style="html=1;whiteSpace=wrap;rhombus;fontSize=11;fontColor=#000000;spacing=3;strokeOpacity=100;fillOpacity=100;fillColor=#FFCCFF;" parent="QTXxaZ0U23KRBkYtwmUl-44" vertex="1">
            <mxGeometry x="577" y="105" width="96" height="72" as="geometry" />
          </mxCell>
        </UserObject>
        <UserObject label="" lucidchartObjectId="Jyc14iXMQ1WK" id="GL6hUhirYXwNvFaNPU7j-48">
          <mxCell style="html=1;jettySize=18;fontSize=11;fontColor=#000000;strokeOpacity=100;rounded=1;arcSize=0;edgeStyle=orthogonalEdgeStyle;startArrow=none;;endArrow=block;endFill=1;;exitX=1.0104166666666656;exitY=0.5;exitPerimeter=1;entryX=-0.00625;entryY=0.5;entryPerimeter=1;fillColor=#FFCCFF;" parent="QTXxaZ0U23KRBkYtwmUl-44" source="GL6hUhirYXwNvFaNPU7j-47" target="GL6hUhirYXwNvFaNPU7j-50" edge="1">
            <mxGeometry width="100" height="100" relative="1" as="geometry">
              <Array as="points" />
            </mxGeometry>
          </mxCell>
        </UserObject>
        <mxCell id="GL6hUhirYXwNvFaNPU7j-49" value="Yes" style="text;html=1;resizable=0;labelBackgroundColor=#ffffff;align=center;verticalAlign=middle;fontColor=#000000;;fontSize=11;fillColor=#FFCCFF;" parent="GL6hUhirYXwNvFaNPU7j-48" vertex="1">
          <mxGeometry relative="1" as="geometry" />
        </mxCell>
        <UserObject label="Ready to flash" lucidchartObjectId="7yc18Ew2O.3Y" id="GL6hUhirYXwNvFaNPU7j-50">
          <mxCell style="html=1;whiteSpace=wrap;shape=document;fontSize=11;fontColor=#000000;spacing=3;strokeOpacity=100;fillOpacity=100;fillColor=#FFCCFF;" parent="QTXxaZ0U23KRBkYtwmUl-44" vertex="1">
            <mxGeometry x="719" y="105" width="96" height="72" as="geometry" />
          </mxCell>
        </UserObject>
        <UserObject label="" lucidchartObjectId="mCc1Rg8p6Vao" id="GL6hUhirYXwNvFaNPU7j-54">
          <mxCell style="html=1;jettySize=18;fontSize=11;strokeOpacity=100;rounded=1;arcSize=0;edgeStyle=orthogonalEdgeStyle;startArrow=none;;endArrow=block;endFill=1;;exitX=1.00625;exitY=0.5017780961115942;exitPerimeter=1;entryX=-0.006250000000000089;entryY=0.5;entryPerimeter=1;fillColor=#FFCCFF;" parent="QTXxaZ0U23KRBkYtwmUl-44" source="GL6hUhirYXwNvFaNPU7j-50" target="GL6hUhirYXwNvFaNPU7j-55" edge="1">
            <mxGeometry width="100" height="100" relative="1" as="geometry">
              <Array as="points" />
            </mxGeometry>
          </mxCell>
        </UserObject>
        <UserObject label="Flash" lucidchartObjectId="nCc1.QipA6w_" id="GL6hUhirYXwNvFaNPU7j-55">
          <mxCell style="html=1;whiteSpace=wrap;;fontSize=11;fontColor=#000000;spacing=3;strokeOpacity=100;fillOpacity=100;fillColor=#FFCCFF;" parent="QTXxaZ0U23KRBkYtwmUl-44" vertex="1">
            <mxGeometry x="861" y="123" width="96" height="37" as="geometry" />
          </mxCell>
        </UserObject>
        <UserObject label="" lucidchartObjectId="CCc1sbQ..XQR" id="GL6hUhirYXwNvFaNPU7j-56">
          <mxCell style="html=1;jettySize=18;fontSize=11;strokeOpacity=100;rounded=1;arcSize=0;edgeStyle=orthogonalEdgeStyle;startArrow=none;;endArrow=block;endFill=1;;exitX=1.00625;exitY=0.4999999995593299;exitPerimeter=1;entryX=-0.006250000000000089;entryY=0.5;entryPerimeter=1;fillColor=#FFCCFF;" parent="QTXxaZ0U23KRBkYtwmUl-44" source="GL6hUhirYXwNvFaNPU7j-55" target="GL6hUhirYXwNvFaNPU7j-57" edge="1">
            <mxGeometry width="100" height="100" relative="1" as="geometry">
              <Array as="points" />
            </mxGeometry>
          </mxCell>
        </UserObject>
        <UserObject label="Flashing" lucidchartObjectId="HCc12ZpPw2o-" id="GL6hUhirYXwNvFaNPU7j-57">
          <mxCell style="html=1;whiteSpace=wrap;shape=tape;size=0.2;fontSize=11;fontColor=#000000;spacing=3;strokeOpacity=100;fillOpacity=100;fillColor=#FFCCFF;" parent="QTXxaZ0U23KRBkYtwmUl-44" vertex="1">
            <mxGeometry x="1002" y="106" width="96" height="72" as="geometry" />
          </mxCell>
        </UserObject>
        <UserObject label="Firmware Info" lucidchartObjectId="VDc1RfbanFJR" id="GL6hUhirYXwNvFaNPU7j-58">
          <mxCell style="html=1;whiteSpace=wrap;shape=document;fontSize=11;fontColor=#000000;spacing=3;strokeOpacity=100;fillColor=#FFCCFF;" parent="QTXxaZ0U23KRBkYtwmUl-44" vertex="1">
            <mxGeometry x="297" y="105" width="96" height="72" as="geometry" />
          </mxCell>
        </UserObject>
        <mxCell id="QTXxaZ0U23KRBkYtwmUl-23" style="edgeStyle=orthogonalEdgeStyle;rounded=0;orthogonalLoop=1;jettySize=auto;html=1;entryX=1;entryY=0.75;entryDx=0;entryDy=0;fillColor=#FFCCFF;" edge="1" parent="QTXxaZ0U23KRBkYtwmUl-44" source="GL6hUhirYXwNvFaNPU7j-50" target="GL6hUhirYXwNvFaNPU7j-58">
          <mxGeometry relative="1" as="geometry">
            <Array as="points">
              <mxPoint x="767" y="240" />
              <mxPoint x="393" y="240" />
            </Array>
          </mxGeometry>
        </mxCell>
        <UserObject label="" lucidchartObjectId="nEc1_LWFeriq" id="GL6hUhirYXwNvFaNPU7j-59">
          <mxCell style="html=1;jettySize=18;fontSize=11;strokeOpacity=100;rounded=1;arcSize=0;edgeStyle=orthogonalEdgeStyle;startArrow=none;;endArrow=block;endFill=1;;exitX=1.00625;exitY=0.5017780961115942;exitPerimeter=1;entryX=-0.006249999999999911;entryY=0.47444389042411733;entryPerimeter=1;fillColor=#FFCCFF;" parent="QTXxaZ0U23KRBkYtwmUl-44" source="GL6hUhirYXwNvFaNPU7j-58" target="GL6hUhirYXwNvFaNPU7j-42" edge="1">
            <mxGeometry width="100" height="100" relative="1" as="geometry">
              <Array as="points" />
            </mxGeometry>
          </mxCell>
        </UserObject>
        <UserObject label="" lucidchartObjectId="eFc18QwNKlT0" id="GL6hUhirYXwNvFaNPU7j-61">
          <mxCell style="html=1;jettySize=18;fontSize=11;strokeOpacity=100;rounded=1;arcSize=0;edgeStyle=orthogonalEdgeStyle;startArrow=none;;endArrow=block;endFill=1;;exitX=0.5;exitY=0.07476157579023343;exitPerimeter=1;entryX=0.5;entryY=1.013368301496704;entryPerimeter=1;fillColor=#FFCCFF;" parent="QTXxaZ0U23KRBkYtwmUl-44" source="GL6hUhirYXwNvFaNPU7j-57" target="GL6hUhirYXwNvFaNPU7j-62" edge="1">
            <mxGeometry width="100" height="100" relative="1" as="geometry">
              <Array as="points" />
            </mxGeometry>
          </mxCell>
        </UserObject>
        <UserObject label="Aboard" lucidchartObjectId="fFc11mfkoiTh" id="GL6hUhirYXwNvFaNPU7j-62">
          <mxCell style="html=1;whiteSpace=wrap;;fontSize=11;fontColor=#000000;spacing=3;strokeOpacity=100;fillColor=#FFCCFF;" parent="QTXxaZ0U23KRBkYtwmUl-44" vertex="1">
            <mxGeometry x="1000.5" width="99" height="45" as="geometry" />
          </mxCell>
        </UserObject>
        <UserObject label="" lucidchartObjectId="ZFc1sTrU0Bli" id="GL6hUhirYXwNvFaNPU7j-64">
          <mxCell style="html=1;jettySize=18;fontSize=11;strokeOpacity=100;rounded=1;arcSize=0;edgeStyle=orthogonalEdgeStyle;startArrow=none;;endArrow=block;endFill=1;;exitX=1.00625;exitY=0.5000009892331936;exitPerimeter=1;entryX=-0.010416666666665719;entryY=0.5;entryPerimeter=1;fillColor=#FFCCFF;" parent="QTXxaZ0U23KRBkYtwmUl-44" source="GL6hUhirYXwNvFaNPU7j-57" target="GL6hUhirYXwNvFaNPU7j-65" edge="1">
            <mxGeometry width="100" height="100" relative="1" as="geometry">
              <Array as="points" />
            </mxGeometry>
          </mxCell>
        </UserObject>
        <UserObject label="CheckSum success" lucidchartObjectId="_Fc1W~n.Hfio" id="GL6hUhirYXwNvFaNPU7j-65">
          <mxCell style="html=1;whiteSpace=wrap;rhombus;fontSize=11;fontColor=#000000;spacing=3;strokeOpacity=100;fillColor=#FFCCFF;" parent="QTXxaZ0U23KRBkYtwmUl-44" vertex="1">
            <mxGeometry x="1143" y="106" width="96" height="72" as="geometry" />
          </mxCell>
        </UserObject>
        <UserObject label="" lucidchartObjectId="JGc1lsPKgB5f" id="GL6hUhirYXwNvFaNPU7j-66">
          <mxCell style="html=1;jettySize=18;fontSize=11;strokeOpacity=100;rounded=1;arcSize=0;edgeStyle=orthogonalEdgeStyle;startArrow=none;;endArrow=block;endFill=1;;exitX=0.5;exitY=0.9240261873258501;exitPerimeter=1;entryX=1.00625;entryY=0.5;entryPerimeter=1;fillColor=#FFCCFF;" parent="QTXxaZ0U23KRBkYtwmUl-44" source="GL6hUhirYXwNvFaNPU7j-58" target="GL6hUhirYXwNvFaNPU7j-13" edge="1">
            <mxGeometry width="100" height="100" relative="1" as="geometry">
              <Array as="points" />
            </mxGeometry>
          </mxCell>
        </UserObject>
        <mxCell id="QTXxaZ0U23KRBkYtwmUl-8" value="No" style="text;html=1;strokeColor=none;fillColor=#FFCCFF;align=center;verticalAlign=middle;whiteSpace=wrap;rounded=0;" vertex="1" parent="QTXxaZ0U23KRBkYtwmUl-44">
          <mxGeometry x="1171" y="233" width="40" height="20" as="geometry" />
        </mxCell>
        <mxCell id="QTXxaZ0U23KRBkYtwmUl-31" style="edgeStyle=orthogonalEdgeStyle;rounded=0;orthogonalLoop=1;jettySize=auto;html=1;entryX=0.5;entryY=0;entryDx=0;entryDy=0;fillColor=#FFCCFF;" edge="1" parent="QTXxaZ0U23KRBkYtwmUl-44" source="GL6hUhirYXwNvFaNPU7j-65" target="QTXxaZ0U23KRBkYtwmUl-8">
          <mxGeometry relative="1" as="geometry" />
        </mxCell>
        <mxCell id="QTXxaZ0U23KRBkYtwmUl-20" style="edgeStyle=orthogonalEdgeStyle;rounded=0;orthogonalLoop=1;jettySize=auto;html=1;fillColor=#FFCCFF;" edge="1" parent="QTXxaZ0U23KRBkYtwmUl-44" source="QTXxaZ0U23KRBkYtwmUl-18" target="GL6hUhirYXwNvFaNPU7j-50">
          <mxGeometry relative="1" as="geometry" />
        </mxCell>
        <mxCell id="QTXxaZ0U23KRBkYtwmUl-18" value="Disconnect" style="rounded=0;whiteSpace=wrap;html=1;fillColor=#FFCCFF;" vertex="1" parent="QTXxaZ0U23KRBkYtwmUl-44">
          <mxGeometry x="707" y="2" width="120" height="41" as="geometry" />
        </mxCell>
        <mxCell id="QTXxaZ0U23KRBkYtwmUl-19" style="edgeStyle=orthogonalEdgeStyle;rounded=0;orthogonalLoop=1;jettySize=auto;html=1;entryX=1;entryY=0.5;entryDx=0;entryDy=0;fillColor=#FFCCFF;" edge="1" parent="QTXxaZ0U23KRBkYtwmUl-44" source="GL6hUhirYXwNvFaNPU7j-62" target="QTXxaZ0U23KRBkYtwmUl-18">
          <mxGeometry relative="1" as="geometry" />
        </mxCell>
        <mxCell id="QTXxaZ0U23KRBkYtwmUl-25" value="Yes" style="text;html=1;strokeColor=none;fillColor=#FFCCFF;align=center;verticalAlign=middle;whiteSpace=wrap;rounded=0;" vertex="1" parent="QTXxaZ0U23KRBkYtwmUl-44">
          <mxGeometry x="1279" y="132" width="40" height="20" as="geometry" />
        </mxCell>
        <mxCell id="QTXxaZ0U23KRBkYtwmUl-26" style="edgeStyle=orthogonalEdgeStyle;rounded=0;orthogonalLoop=1;jettySize=auto;html=1;entryX=0;entryY=0.5;entryDx=0;entryDy=0;fillColor=#FFCCFF;" edge="1" parent="QTXxaZ0U23KRBkYtwmUl-44" source="GL6hUhirYXwNvFaNPU7j-65" target="QTXxaZ0U23KRBkYtwmUl-25">
          <mxGeometry relative="1" as="geometry" />
        </mxCell>
        <mxCell id="QTXxaZ0U23KRBkYtwmUl-27" value="Succesfull&lt;br&gt;Flash" style="shape=document;whiteSpace=wrap;html=1;boundedLbl=1;fillColor=#FFCCFF;" vertex="1" parent="QTXxaZ0U23KRBkYtwmUl-44">
          <mxGeometry x="1359" y="102" width="120" height="80" as="geometry" />
        </mxCell>
        <mxCell id="QTXxaZ0U23KRBkYtwmUl-28" style="edgeStyle=orthogonalEdgeStyle;rounded=0;orthogonalLoop=1;jettySize=auto;html=1;fillColor=#FFCCFF;" edge="1" parent="QTXxaZ0U23KRBkYtwmUl-44" source="QTXxaZ0U23KRBkYtwmUl-25" target="QTXxaZ0U23KRBkYtwmUl-27">
          <mxGeometry relative="1" as="geometry" />
        </mxCell>
        <mxCell id="QTXxaZ0U23KRBkYtwmUl-33" style="edgeStyle=orthogonalEdgeStyle;rounded=0;orthogonalLoop=1;jettySize=auto;html=1;fillColor=#FFCCFF;" edge="1" parent="QTXxaZ0U23KRBkYtwmUl-44" source="QTXxaZ0U23KRBkYtwmUl-30">
          <mxGeometry relative="1" as="geometry">
            <mxPoint x="819" y="170" as="targetPoint" />
            <Array as="points">
              <mxPoint x="1419" y="370" />
              <mxPoint x="819" y="370" />
            </Array>
          </mxGeometry>
        </mxCell>
        <mxCell id="QTXxaZ0U23KRBkYtwmUl-30" value="Flash&lt;br&gt;Error" style="shape=document;whiteSpace=wrap;html=1;boundedLbl=1;fillColor=#FFCCFF;" vertex="1" parent="QTXxaZ0U23KRBkYtwmUl-44">
          <mxGeometry x="1359" y="220" width="120" height="80" as="geometry" />
        </mxCell>
        <mxCell id="QTXxaZ0U23KRBkYtwmUl-32" style="edgeStyle=orthogonalEdgeStyle;rounded=0;orthogonalLoop=1;jettySize=auto;html=1;entryX=0;entryY=0.25;entryDx=0;entryDy=0;fillColor=#FFCCFF;" edge="1" parent="QTXxaZ0U23KRBkYtwmUl-44" source="QTXxaZ0U23KRBkYtwmUl-8" target="QTXxaZ0U23KRBkYtwmUl-30">
          <mxGeometry relative="1" as="geometry">
            <mxPoint x="1329" y="250" as="targetPoint" />
            <Array as="points">
              <mxPoint x="1249" y="240" />
              <mxPoint x="1249" y="240" />
            </Array>
          </mxGeometry>
        </mxCell>
        <mxCell id="QTXxaZ0U23KRBkYtwmUl-39" style="edgeStyle=orthogonalEdgeStyle;rounded=0;orthogonalLoop=1;jettySize=auto;html=1;entryX=0;entryY=0.75;entryDx=0;entryDy=0;fillColor=#FFCCFF;" edge="1" parent="QTXxaZ0U23KRBkYtwmUl-44" source="QTXxaZ0U23KRBkYtwmUl-35" target="QTXxaZ0U23KRBkYtwmUl-30">
          <mxGeometry relative="1" as="geometry">
            <Array as="points">
              <mxPoint x="1169" y="280" />
              <mxPoint x="1169" y="280" />
            </Array>
          </mxGeometry>
        </mxCell>
        <mxCell id="QTXxaZ0U23KRBkYtwmUl-35" value="Error" style="shape=hexagon;perimeter=hexagonPerimeter2;whiteSpace=wrap;html=1;fillColor=#FFCCFF;" vertex="1" parent="QTXxaZ0U23KRBkYtwmUl-44">
          <mxGeometry x="990" y="261" width="120" height="44" as="geometry" />
        </mxCell>
        <mxCell id="QTXxaZ0U23KRBkYtwmUl-36" style="edgeStyle=orthogonalEdgeStyle;rounded=0;orthogonalLoop=1;jettySize=auto;html=1;entryX=0.5;entryY=0;entryDx=0;entryDy=0;fillColor=#FFCCFF;" edge="1" parent="QTXxaZ0U23KRBkYtwmUl-44" source="GL6hUhirYXwNvFaNPU7j-57" target="QTXxaZ0U23KRBkYtwmUl-35">
          <mxGeometry relative="1" as="geometry" />
        </mxCell>
        <UserObject label="Lora Registration" lucidchartObjectId="Mkd1fRWWIoMG" id="QTXxaZ0U23KRBkYtwmUl-47">
          <mxCell style="html=1;whiteSpace=wrap;shape=document;fontSize=11;fontColor=#000000;spacing=3;strokeOpacity=100;fillColor=#E5CCFF;" vertex="1" parent="WIyWlLk6GJQsqaUBKTNV-1">
            <mxGeometry x="1021" y="1111" width="96" height="72" as="geometry" />
          </mxCell>
        </UserObject>
        <UserObject label="" lucidchartObjectId="Ukd1..iRWrIr" id="QTXxaZ0U23KRBkYtwmUl-48">
          <mxCell style="html=1;jettySize=18;fontSize=11;strokeOpacity=100;rounded=1;arcSize=0;edgeStyle=orthogonalEdgeStyle;startArrow=none;;endArrow=block;endFill=1;;exitX=1.0062499999999996;exitY=0.5017780961115946;exitPerimeter=1;entryX=-0.00625;entryY=0.5;entryPerimeter=1;fillColor=#E5CCFF;" edge="1" parent="WIyWlLk6GJQsqaUBKTNV-1" source="QTXxaZ0U23KRBkYtwmUl-47" target="QTXxaZ0U23KRBkYtwmUl-49">
            <mxGeometry width="100" height="100" relative="1" as="geometry">
              <Array as="points" />
            </mxGeometry>
          </mxCell>
        </UserObject>
        <UserObject label="CRA" lucidchartObjectId="Zkd1F7v6COOc" id="QTXxaZ0U23KRBkYtwmUl-49">
          <mxCell style="html=1;whiteSpace=wrap;;fontSize=11;fontColor=#000000;spacing=3;strokeOpacity=100;fillColor=#E5CCFF;" vertex="1" parent="WIyWlLk6GJQsqaUBKTNV-1">
            <mxGeometry x="1182" y="924" width="96" height="49" as="geometry" />
          </mxCell>
        </UserObject>
        <UserObject label="" lucidchartObjectId="9kd1zkz-5LXe" id="QTXxaZ0U23KRBkYtwmUl-50">
          <mxCell style="html=1;jettySize=18;fontSize=11;strokeOpacity=100;rounded=1;arcSize=0;edgeStyle=orthogonalEdgeStyle;startArrow=none;;endArrow=block;endFill=1;;exitX=1.00625;exitY=0.5;exitPerimeter=1;entryX=-0.00625;entryY=0.5;entryPerimeter=1;fillColor=#E5CCFF;" edge="1" parent="WIyWlLk6GJQsqaUBKTNV-1" source="QTXxaZ0U23KRBkYtwmUl-49" target="QTXxaZ0U23KRBkYtwmUl-51">
            <mxGeometry width="100" height="100" relative="1" as="geometry">
              <Array as="points" />
            </mxGeometry>
          </mxCell>
        </UserObject>
        <UserObject label="Login" lucidchartObjectId="_kd1L7X50EIH" id="QTXxaZ0U23KRBkYtwmUl-51">
          <mxCell style="html=1;whiteSpace=wrap;;fontSize=11;fontColor=#000000;spacing=3;strokeOpacity=100;fillColor=#E5CCFF;" vertex="1" parent="WIyWlLk6GJQsqaUBKTNV-1">
            <mxGeometry x="1345" y="924" width="96" height="49" as="geometry" />
          </mxCell>
        </UserObject>
        <UserObject label="" lucidchartObjectId="Dld1uf8X~v4b" id="QTXxaZ0U23KRBkYtwmUl-52">
          <mxCell style="html=1;jettySize=18;fontSize=11;strokeOpacity=100;rounded=1;arcSize=0;edgeStyle=orthogonalEdgeStyle;startArrow=none;;endArrow=block;endFill=1;;exitX=1.00625;exitY=0.5;exitPerimeter=1;entryX=-0.006250000000000089;entryY=0.5;entryPerimeter=1;fillColor=#E5CCFF;" edge="1" parent="WIyWlLk6GJQsqaUBKTNV-1" source="QTXxaZ0U23KRBkYtwmUl-49" target="QTXxaZ0U23KRBkYtwmUl-59">
            <mxGeometry width="100" height="100" relative="1" as="geometry">
              <Array as="points">
                <mxPoint x="1292" y="960" />
                <mxPoint x="1292" y="1019" />
                <mxPoint x="1483" y="1019" />
                <mxPoint x="1483" y="960" />
              </Array>
            </mxGeometry>
          </mxCell>
        </UserObject>
        <UserObject label="Start Device Registration" lucidchartObjectId="Hld1SiNIaEQS" id="QTXxaZ0U23KRBkYtwmUl-53">
          <mxCell style="html=1;whiteSpace=wrap;;fontSize=11;fontColor=#000000;spacing=3;strokeOpacity=100;fillColor=#E5CCFF;" vertex="1" parent="WIyWlLk6GJQsqaUBKTNV-1">
            <mxGeometry x="1694" y="924" width="96" height="49" as="geometry" />
          </mxCell>
        </UserObject>
        <UserObject label="" lucidchartObjectId="umd1_ckN~1bz" id="QTXxaZ0U23KRBkYtwmUl-54">
          <mxCell style="html=1;jettySize=18;fontSize=11;strokeOpacity=100;rounded=1;arcSize=0;edgeStyle=orthogonalEdgeStyle;startArrow=none;;endArrow=block;endFill=1;;exitX=1.00625;exitY=0.5;exitPerimeter=1;entryX=-0.006250000000000089;entryY=0.5;entryPerimeter=1;fillColor=#E5CCFF;" edge="1" parent="WIyWlLk6GJQsqaUBKTNV-1" source="QTXxaZ0U23KRBkYtwmUl-51" target="QTXxaZ0U23KRBkYtwmUl-59">
            <mxGeometry width="100" height="100" relative="1" as="geometry">
              <Array as="points" />
            </mxGeometry>
          </mxCell>
        </UserObject>
        <UserObject label="Registration" lucidchartObjectId="fnd1PJg7_VbQ" id="QTXxaZ0U23KRBkYtwmUl-55">
          <mxCell style="html=1;whiteSpace=wrap;shape=tape;size=0.2;fontSize=11;fontColor=#000000;spacing=3;strokeOpacity=100;fillColor=#E5CCFF;" vertex="1" parent="WIyWlLk6GJQsqaUBKTNV-1">
            <mxGeometry x="1846" y="924" width="96" height="49" as="geometry" />
          </mxCell>
        </UserObject>
        <UserObject label="" lucidchartObjectId="ind1_ka_Hyjm" id="QTXxaZ0U23KRBkYtwmUl-56">
          <mxCell style="html=1;jettySize=18;fontSize=11;strokeOpacity=100;rounded=1;arcSize=0;edgeStyle=orthogonalEdgeStyle;startArrow=none;;endArrow=block;endFill=1;;exitX=1.00625;exitY=0.5;exitPerimeter=1;entryX=-0.00625;entryY=0.5000000000002042;entryPerimeter=1;fillColor=#E5CCFF;" edge="1" parent="WIyWlLk6GJQsqaUBKTNV-1" source="QTXxaZ0U23KRBkYtwmUl-53" target="QTXxaZ0U23KRBkYtwmUl-55">
            <mxGeometry width="100" height="100" relative="1" as="geometry">
              <Array as="points" />
            </mxGeometry>
          </mxCell>
        </UserObject>
        <UserObject label="" lucidchartObjectId="upd1F1MXk9z9" id="QTXxaZ0U23KRBkYtwmUl-57">
          <mxCell style="html=1;jettySize=18;fontSize=11;strokeOpacity=100;rounded=1;arcSize=0;edgeStyle=orthogonalEdgeStyle;startArrow=none;;endArrow=block;endFill=1;;exitX=1.00625;exitY=0.5000009892331936;exitPerimeter=1;entryX=-0.00625;entryY=0.5;entryPerimeter=1;fillColor=#E5CCFF;" edge="1" parent="WIyWlLk6GJQsqaUBKTNV-1" source="QTXxaZ0U23KRBkYtwmUl-55" target="QTXxaZ0U23KRBkYtwmUl-58">
            <mxGeometry width="100" height="100" relative="1" as="geometry">
              <Array as="points" />
            </mxGeometry>
          </mxCell>
        </UserObject>
        <UserObject label="Successfull registration" lucidchartObjectId="xpd1z0KXKtAO" id="QTXxaZ0U23KRBkYtwmUl-58">
          <mxCell style="html=1;whiteSpace=wrap;shape=document;fontSize=11;fontColor=#000000;spacing=3;strokeOpacity=100;fillColor=#E5CCFF;" vertex="1" parent="WIyWlLk6GJQsqaUBKTNV-1">
            <mxGeometry x="1979" y="875" width="96" height="49" as="geometry" />
          </mxCell>
        </UserObject>
        <UserObject label="Document" lucidchartObjectId="P_d1n4n5iAxT" id="QTXxaZ0U23KRBkYtwmUl-59">
          <mxCell style="html=1;whiteSpace=wrap;shape=document;fontSize=11;fontColor=#000000;spacing=3;strokeOpacity=100;fillColor=#E5CCFF;" vertex="1" parent="WIyWlLk6GJQsqaUBKTNV-1">
            <mxGeometry x="1531" y="924" width="96" height="49" as="geometry" />
          </mxCell>
        </UserObject>
        <UserObject label="" lucidchartObjectId="d.d1SVqsZi4l" id="QTXxaZ0U23KRBkYtwmUl-60">
          <mxCell style="html=1;jettySize=18;fontSize=11;strokeOpacity=100;rounded=1;arcSize=0;edgeStyle=orthogonalEdgeStyle;startArrow=none;;endArrow=block;endFill=1;;exitX=1.00625;exitY=0.5017780961115944;exitPerimeter=1;entryX=-0.00625;entryY=0.5017780961113902;entryPerimeter=1;fillColor=#E5CCFF;" edge="1" parent="WIyWlLk6GJQsqaUBKTNV-1" source="QTXxaZ0U23KRBkYtwmUl-59" target="QTXxaZ0U23KRBkYtwmUl-53">
            <mxGeometry width="100" height="100" relative="1" as="geometry">
              <Array as="points" />
            </mxGeometry>
          </mxCell>
        </UserObject>
        <UserObject label="Test  Connectivity" lucidchartObjectId="rih178~4z~lL" id="QTXxaZ0U23KRBkYtwmUl-61">
          <mxCell style="html=1;whiteSpace=wrap;;fontSize=11;fontColor=#000000;spacing=3;strokeOpacity=100;fillColor=#E5CCFF;" vertex="1" parent="WIyWlLk6GJQsqaUBKTNV-1">
            <mxGeometry x="1694" y="1111" width="96" height="49" as="geometry" />
          </mxCell>
        </UserObject>
        <UserObject label="" lucidchartObjectId="Cxu1V4CJepfi" id="QTXxaZ0U23KRBkYtwmUl-62">
          <mxCell style="html=1;jettySize=18;fontSize=11;strokeOpacity=100;rounded=1;arcSize=0;edgeStyle=orthogonalEdgeStyle;startArrow=none;;endArrow=block;endFill=1;;exitX=1.00625;exitY=0.5016225079642872;exitPerimeter=1;entryX=0.5;entryY=-0.012163687979267975;entryPerimeter=1;fillColor=#E5CCFF;" edge="1" parent="WIyWlLk6GJQsqaUBKTNV-1" source="QTXxaZ0U23KRBkYtwmUl-58" target="QTXxaZ0U23KRBkYtwmUl-59">
            <mxGeometry width="100" height="100" relative="1" as="geometry">
              <Array as="points">
                <mxPoint x="2098" y="899" />
                <mxPoint x="2098" y="850" />
                <mxPoint x="1579" y="850" />
              </Array>
            </mxGeometry>
          </mxCell>
        </UserObject>
        <UserObject label="" lucidchartObjectId="Qxu1qkHZokXU" id="QTXxaZ0U23KRBkYtwmUl-63">
          <mxCell style="html=1;jettySize=18;fontSize=11;strokeOpacity=100;rounded=1;arcSize=0;edgeStyle=orthogonalEdgeStyle;startArrow=none;;endArrow=block;endFill=1;;exitX=0.5;exitY=0.9259691346385878;exitPerimeter=1;entryX=-0.00625;entryY=0.5000000000000002;entryPerimeter=1;fillColor=#E5CCFF;" edge="1" parent="WIyWlLk6GJQsqaUBKTNV-1" source="QTXxaZ0U23KRBkYtwmUl-59" target="QTXxaZ0U23KRBkYtwmUl-61">
            <mxGeometry width="100" height="100" relative="1" as="geometry">
              <Array as="points" />
            </mxGeometry>
          </mxCell>
        </UserObject>
        <UserObject label="Unsuccessfull registration" lucidchartObjectId="2yu1mReFHpzT" id="QTXxaZ0U23KRBkYtwmUl-64">
          <mxCell style="html=1;whiteSpace=wrap;shape=document;fontSize=11;fontColor=#000000;spacing=3;strokeOpacity=100;fillColor=#E5CCFF;" vertex="1" parent="WIyWlLk6GJQsqaUBKTNV-1">
            <mxGeometry x="1979" y="968" width="96" height="49" as="geometry" />
          </mxCell>
        </UserObject>
        <UserObject label="" lucidchartObjectId=".yu1uHIOzO7v" id="QTXxaZ0U23KRBkYtwmUl-65">
          <mxCell style="html=1;jettySize=18;fontSize=11;strokeOpacity=100;rounded=1;arcSize=0;edgeStyle=orthogonalEdgeStyle;startArrow=none;;endArrow=block;endFill=1;;exitX=1.00625;exitY=0.5000011700088123;exitPerimeter=1;entryX=-0.006250000000000089;entryY=0.5000000000000002;entryPerimeter=1;fillColor=#E5CCFF;" edge="1" parent="WIyWlLk6GJQsqaUBKTNV-1" source="QTXxaZ0U23KRBkYtwmUl-55" target="QTXxaZ0U23KRBkYtwmUl-64">
            <mxGeometry width="100" height="100" relative="1" as="geometry">
              <Array as="points" />
            </mxGeometry>
          </mxCell>
        </UserObject>
        <UserObject label="" lucidchartObjectId="kzu102Je5UWF" id="QTXxaZ0U23KRBkYtwmUl-66">
          <mxCell style="html=1;jettySize=18;fontSize=11;strokeOpacity=100;rounded=1;arcSize=0;edgeStyle=orthogonalEdgeStyle;startArrow=none;;endArrow=block;endFill=1;;exitX=1.00625;exitY=0.5016225079642872;exitPerimeter=1;entryX=0.5;entryY=-0.012163687979267975;entryPerimeter=1;fillColor=#E5CCFF;" edge="1" parent="WIyWlLk6GJQsqaUBKTNV-1" source="QTXxaZ0U23KRBkYtwmUl-64" target="QTXxaZ0U23KRBkYtwmUl-59">
            <mxGeometry width="100" height="100" relative="1" as="geometry">
              <Array as="points">
                <mxPoint x="2098" y="993" />
                <mxPoint x="2098" y="850" />
                <mxPoint x="1579" y="850" />
              </Array>
            </mxGeometry>
          </mxCell>
        </UserObject>
        <UserObject label="Test" lucidchartObjectId="Tzu1GbP6d~dJ" id="QTXxaZ0U23KRBkYtwmUl-67">
          <mxCell style="html=1;whiteSpace=wrap;shape=tape;size=0.2;fontSize=11;fontColor=#000000;spacing=3;strokeOpacity=100;fillColor=#E5CCFF;" vertex="1" parent="WIyWlLk6GJQsqaUBKTNV-1">
            <mxGeometry x="1849" y="1111" width="96" height="49" as="geometry" />
          </mxCell>
        </UserObject>
        <UserObject label="" lucidchartObjectId="Tzu1XsPJFAY_" id="QTXxaZ0U23KRBkYtwmUl-68">
          <mxCell style="html=1;jettySize=18;fontSize=11;strokeOpacity=100;rounded=1;arcSize=0;edgeStyle=orthogonalEdgeStyle;startArrow=none;;endArrow=block;endFill=1;;exitX=1.00625;exitY=0.5000009892331936;exitPerimeter=1;entryX=-0.006250000000000089;entryY=0.5;entryPerimeter=1;fillColor=#E5CCFF;" edge="1" parent="WIyWlLk6GJQsqaUBKTNV-1" source="QTXxaZ0U23KRBkYtwmUl-67" target="QTXxaZ0U23KRBkYtwmUl-69">
            <mxGeometry width="100" height="100" relative="1" as="geometry">
              <Array as="points" />
            </mxGeometry>
          </mxCell>
        </UserObject>
        <UserObject label="Successfull test" lucidchartObjectId="Tzu1Jyo60_Tf" id="QTXxaZ0U23KRBkYtwmUl-69">
          <mxCell style="html=1;whiteSpace=wrap;shape=document;fontSize=11;fontColor=#000000;spacing=3;strokeOpacity=100;fillColor=#E5CCFF;" vertex="1" parent="WIyWlLk6GJQsqaUBKTNV-1">
            <mxGeometry x="1981" y="1061" width="96" height="49" as="geometry" />
          </mxCell>
        </UserObject>
        <UserObject label="Unsuccessfull test" lucidchartObjectId="Tzu1sL06hNaV" id="QTXxaZ0U23KRBkYtwmUl-70">
          <mxCell style="html=1;whiteSpace=wrap;shape=document;fontSize=11;fontColor=#000000;spacing=3;strokeOpacity=100;fillColor=#E5CCFF;" vertex="1" parent="WIyWlLk6GJQsqaUBKTNV-1">
            <mxGeometry x="1981" y="1154" width="96" height="49" as="geometry" />
          </mxCell>
        </UserObject>
        <UserObject label="" lucidchartObjectId="Tzu17RqvFyyw" id="QTXxaZ0U23KRBkYtwmUl-71">
          <mxCell style="html=1;jettySize=18;fontSize=11;strokeOpacity=100;rounded=1;arcSize=0;edgeStyle=orthogonalEdgeStyle;startArrow=none;;endArrow=block;endFill=1;;exitX=1.00625;exitY=0.5000011700088123;exitPerimeter=1;entryX=-0.00625;entryY=0.5000000000000002;entryPerimeter=1;fillColor=#E5CCFF;" edge="1" parent="WIyWlLk6GJQsqaUBKTNV-1" source="QTXxaZ0U23KRBkYtwmUl-67" target="QTXxaZ0U23KRBkYtwmUl-70">
            <mxGeometry width="100" height="100" relative="1" as="geometry">
              <Array as="points" />
            </mxGeometry>
          </mxCell>
        </UserObject>
        <UserObject label="" lucidchartObjectId="JBu1fIOpzYEq" id="QTXxaZ0U23KRBkYtwmUl-72">
          <mxCell style="html=1;jettySize=18;fontSize=11;strokeOpacity=100;rounded=1;arcSize=0;edgeStyle=orthogonalEdgeStyle;startArrow=none;;endArrow=block;endFill=1;;exitX=1.00625;exitY=0.4999999993059001;exitPerimeter=1;entryX=-0.00625;entryY=0.5000009885393916;entryPerimeter=1;fillColor=#E5CCFF;" edge="1" parent="WIyWlLk6GJQsqaUBKTNV-1" source="QTXxaZ0U23KRBkYtwmUl-61" target="QTXxaZ0U23KRBkYtwmUl-67">
            <mxGeometry width="100" height="100" relative="1" as="geometry">
              <Array as="points" />
            </mxGeometry>
          </mxCell>
        </UserObject>
        <UserObject label="" lucidchartObjectId="WBu1TiAYG2qi" id="QTXxaZ0U23KRBkYtwmUl-73">
          <mxCell style="html=1;jettySize=18;fontSize=11;strokeOpacity=100;rounded=1;arcSize=0;edgeStyle=orthogonalEdgeStyle;startArrow=none;;endArrow=block;endFill=1;;exitX=1.00625;exitY=0.5016225079642872;exitPerimeter=1;entryX=0.5;entryY=-0.012163687979267975;entryPerimeter=1;fillColor=#E5CCFF;" edge="1" parent="WIyWlLk6GJQsqaUBKTNV-1" source="QTXxaZ0U23KRBkYtwmUl-69" target="QTXxaZ0U23KRBkYtwmUl-59">
            <mxGeometry width="100" height="100" relative="1" as="geometry">
              <Array as="points">
                <mxPoint x="2099" y="1086" />
                <mxPoint x="2099" y="851" />
                <mxPoint x="1579" y="851" />
              </Array>
            </mxGeometry>
          </mxCell>
        </UserObject>
        <UserObject label="" lucidchartObjectId="nCu1CcJJh56t" id="QTXxaZ0U23KRBkYtwmUl-74">
          <mxCell style="html=1;jettySize=18;fontSize=11;strokeOpacity=100;rounded=1;arcSize=0;edgeStyle=orthogonalEdgeStyle;startArrow=none;;endArrow=block;endFill=1;;exitX=1.00625;exitY=0.501622507964288;exitPerimeter=1;entryX=0.5;entryY=-0.012163687979267975;entryPerimeter=1;fillColor=#E5CCFF;" edge="1" parent="WIyWlLk6GJQsqaUBKTNV-1" source="QTXxaZ0U23KRBkYtwmUl-70" target="QTXxaZ0U23KRBkYtwmUl-59">
            <mxGeometry width="100" height="100" relative="1" as="geometry">
              <Array as="points">
                <mxPoint x="2098" y="1179" />
                <mxPoint x="2098" y="850" />
                <mxPoint x="1579" y="850" />
              </Array>
            </mxGeometry>
          </mxCell>
        </UserObject>
        <UserObject label="Things network" lucidchartObjectId="eDu1jxzroyQ6" id="QTXxaZ0U23KRBkYtwmUl-75">
          <mxCell style="html=1;whiteSpace=wrap;;fontSize=11;fontColor=#000000;spacing=3;strokeOpacity=100;fillColor=#E5CCFF;" vertex="1" parent="WIyWlLk6GJQsqaUBKTNV-1">
            <mxGeometry x="1182" y="1322" width="96" height="49" as="geometry" />
          </mxCell>
        </UserObject>
        <UserObject label="" lucidchartObjectId="eDu19PCasB6I" id="QTXxaZ0U23KRBkYtwmUl-76">
          <mxCell style="html=1;jettySize=18;fontSize=11;strokeOpacity=100;rounded=1;arcSize=0;edgeStyle=orthogonalEdgeStyle;startArrow=none;;endArrow=block;endFill=1;;exitX=1.00625;exitY=0.5;exitPerimeter=1;entryX=-0.00625;entryY=0.5;entryPerimeter=1;fillColor=#E5CCFF;" edge="1" parent="WIyWlLk6GJQsqaUBKTNV-1" source="QTXxaZ0U23KRBkYtwmUl-75" target="QTXxaZ0U23KRBkYtwmUl-77">
            <mxGeometry width="100" height="100" relative="1" as="geometry">
              <Array as="points" />
            </mxGeometry>
          </mxCell>
        </UserObject>
        <UserObject label="Login" lucidchartObjectId="eDu1siRkePAo" id="QTXxaZ0U23KRBkYtwmUl-77">
          <mxCell style="html=1;whiteSpace=wrap;;fontSize=11;fontColor=#000000;spacing=3;strokeOpacity=100;fillColor=#E5CCFF;" vertex="1" parent="WIyWlLk6GJQsqaUBKTNV-1">
            <mxGeometry x="1345" y="1322" width="96" height="49" as="geometry" />
          </mxCell>
        </UserObject>
        <UserObject label="" lucidchartObjectId="eDu1VUwZNDbz" id="QTXxaZ0U23KRBkYtwmUl-78">
          <mxCell style="html=1;jettySize=18;fontSize=11;strokeOpacity=100;rounded=1;arcSize=0;edgeStyle=orthogonalEdgeStyle;startArrow=none;;endArrow=block;endFill=1;;exitX=1.00625;exitY=0.5;exitPerimeter=1;entryX=-0.006250000000000089;entryY=0.5;entryPerimeter=1;fillColor=#E5CCFF;" edge="1" parent="WIyWlLk6GJQsqaUBKTNV-1" source="QTXxaZ0U23KRBkYtwmUl-75" target="QTXxaZ0U23KRBkYtwmUl-85">
            <mxGeometry width="100" height="100" relative="1" as="geometry">
              <Array as="points">
                <mxPoint x="1292" y="1358" />
                <mxPoint x="1292" y="1417" />
                <mxPoint x="1483" y="1417" />
                <mxPoint x="1483" y="1358" />
              </Array>
            </mxGeometry>
          </mxCell>
        </UserObject>
        <UserObject label="Start Device Registration" lucidchartObjectId="eDu1ESPuqGsR" id="QTXxaZ0U23KRBkYtwmUl-79">
          <mxCell style="html=1;whiteSpace=wrap;;fontSize=11;fontColor=#000000;spacing=3;strokeOpacity=100;fillColor=#E5CCFF;" vertex="1" parent="WIyWlLk6GJQsqaUBKTNV-1">
            <mxGeometry x="1694" y="1322" width="96" height="49" as="geometry" />
          </mxCell>
        </UserObject>
        <UserObject label="" lucidchartObjectId="eDu1Ebu-o1J2" id="QTXxaZ0U23KRBkYtwmUl-80">
          <mxCell style="html=1;jettySize=18;fontSize=11;strokeOpacity=100;rounded=1;arcSize=0;edgeStyle=orthogonalEdgeStyle;startArrow=none;;endArrow=block;endFill=1;;exitX=1.00625;exitY=0.5;exitPerimeter=1;entryX=-0.006250000000000089;entryY=0.5;entryPerimeter=1;fillColor=#E5CCFF;" edge="1" parent="WIyWlLk6GJQsqaUBKTNV-1" source="QTXxaZ0U23KRBkYtwmUl-77" target="QTXxaZ0U23KRBkYtwmUl-85">
            <mxGeometry width="100" height="100" relative="1" as="geometry">
              <Array as="points" />
            </mxGeometry>
          </mxCell>
        </UserObject>
        <UserObject label="Registration" lucidchartObjectId="eDu1Nm4VQoIZ" id="QTXxaZ0U23KRBkYtwmUl-81">
          <mxCell style="html=1;whiteSpace=wrap;shape=tape;size=0.2;fontSize=11;fontColor=#000000;spacing=3;strokeOpacity=100;fillColor=#E5CCFF;" vertex="1" parent="WIyWlLk6GJQsqaUBKTNV-1">
            <mxGeometry x="1846" y="1322" width="96" height="49" as="geometry" />
          </mxCell>
        </UserObject>
        <UserObject label="" lucidchartObjectId="eDu1bgP82SBk" id="QTXxaZ0U23KRBkYtwmUl-82">
          <mxCell style="html=1;jettySize=18;fontSize=11;strokeOpacity=100;rounded=1;arcSize=0;edgeStyle=orthogonalEdgeStyle;startArrow=none;;endArrow=block;endFill=1;;exitX=1.00625;exitY=0.5;exitPerimeter=1;entryX=-0.00625;entryY=0.5000000000002042;entryPerimeter=1;fillColor=#E5CCFF;" edge="1" parent="WIyWlLk6GJQsqaUBKTNV-1" source="QTXxaZ0U23KRBkYtwmUl-79" target="QTXxaZ0U23KRBkYtwmUl-81">
            <mxGeometry width="100" height="100" relative="1" as="geometry">
              <Array as="points" />
            </mxGeometry>
          </mxCell>
        </UserObject>
        <UserObject label="" lucidchartObjectId="eDu1WHXIzr6k" id="QTXxaZ0U23KRBkYtwmUl-83">
          <mxCell style="html=1;jettySize=18;fontSize=11;strokeOpacity=100;rounded=1;arcSize=0;edgeStyle=orthogonalEdgeStyle;startArrow=none;;endArrow=block;endFill=1;;exitX=1.00625;exitY=0.5000009892331936;exitPerimeter=1;entryX=-0.00625;entryY=0.5;entryPerimeter=1;fillColor=#E5CCFF;" edge="1" parent="WIyWlLk6GJQsqaUBKTNV-1" source="QTXxaZ0U23KRBkYtwmUl-81" target="QTXxaZ0U23KRBkYtwmUl-84">
            <mxGeometry width="100" height="100" relative="1" as="geometry">
              <Array as="points" />
            </mxGeometry>
          </mxCell>
        </UserObject>
        <UserObject label="Successfull registration" lucidchartObjectId="eDu1FRBvLWuo" id="QTXxaZ0U23KRBkYtwmUl-84">
          <mxCell style="html=1;whiteSpace=wrap;shape=document;fontSize=11;fontColor=#000000;spacing=3;strokeOpacity=100;fillColor=#E5CCFF;" vertex="1" parent="WIyWlLk6GJQsqaUBKTNV-1">
            <mxGeometry x="1979" y="1273" width="96" height="49" as="geometry" />
          </mxCell>
        </UserObject>
        <UserObject label="Document" lucidchartObjectId="eDu1sU-xlqQA" id="QTXxaZ0U23KRBkYtwmUl-85">
          <mxCell style="html=1;whiteSpace=wrap;shape=document;fontSize=11;fontColor=#000000;spacing=3;strokeOpacity=100;fillColor=#E5CCFF;" vertex="1" parent="WIyWlLk6GJQsqaUBKTNV-1">
            <mxGeometry x="1531" y="1322" width="96" height="49" as="geometry" />
          </mxCell>
        </UserObject>
        <UserObject label="" lucidchartObjectId="eDu1eBJKyLHO" id="QTXxaZ0U23KRBkYtwmUl-86">
          <mxCell style="html=1;jettySize=18;fontSize=11;strokeOpacity=100;rounded=1;arcSize=0;edgeStyle=orthogonalEdgeStyle;startArrow=none;;endArrow=block;endFill=1;;exitX=1.00625;exitY=0.5017780961115944;exitPerimeter=1;entryX=-0.00625;entryY=0.5017780961113902;entryPerimeter=1;fillColor=#E5CCFF;" edge="1" parent="WIyWlLk6GJQsqaUBKTNV-1" source="QTXxaZ0U23KRBkYtwmUl-85" target="QTXxaZ0U23KRBkYtwmUl-79">
            <mxGeometry width="100" height="100" relative="1" as="geometry">
              <Array as="points" />
            </mxGeometry>
          </mxCell>
        </UserObject>
        <UserObject label="Test  Connectivity" lucidchartObjectId="eDu1wTSmbsD6" id="QTXxaZ0U23KRBkYtwmUl-87">
          <mxCell style="html=1;whiteSpace=wrap;;fontSize=11;fontColor=#000000;spacing=3;strokeOpacity=100;fillColor=#E5CCFF;" vertex="1" parent="WIyWlLk6GJQsqaUBKTNV-1">
            <mxGeometry x="1694" y="1508" width="96" height="49" as="geometry" />
          </mxCell>
        </UserObject>
        <UserObject label="" lucidchartObjectId="eDu1HmfHpwjA" id="QTXxaZ0U23KRBkYtwmUl-88">
          <mxCell style="html=1;jettySize=18;fontSize=11;strokeOpacity=100;rounded=1;arcSize=0;edgeStyle=orthogonalEdgeStyle;startArrow=none;;endArrow=block;endFill=1;;exitX=1.00625;exitY=0.5016225079642872;exitPerimeter=1;entryX=0.5;entryY=-0.012163687979267975;entryPerimeter=1;fillColor=#E5CCFF;" edge="1" parent="WIyWlLk6GJQsqaUBKTNV-1" source="QTXxaZ0U23KRBkYtwmUl-84" target="QTXxaZ0U23KRBkYtwmUl-85">
            <mxGeometry width="100" height="100" relative="1" as="geometry">
              <Array as="points">
                <mxPoint x="2098" y="1297" />
                <mxPoint x="2098" y="1248" />
                <mxPoint x="1579" y="1248" />
              </Array>
            </mxGeometry>
          </mxCell>
        </UserObject>
        <UserObject label="" lucidchartObjectId="eDu1rTVAKJyD" id="QTXxaZ0U23KRBkYtwmUl-89">
          <mxCell style="html=1;jettySize=18;fontSize=11;strokeOpacity=100;rounded=1;arcSize=0;edgeStyle=orthogonalEdgeStyle;startArrow=none;;endArrow=block;endFill=1;;exitX=0.5;exitY=0.9259691346385881;exitPerimeter=1;entryX=-0.00625;entryY=0.5000000000000002;entryPerimeter=1;fillColor=#E5CCFF;" edge="1" parent="WIyWlLk6GJQsqaUBKTNV-1" source="QTXxaZ0U23KRBkYtwmUl-85" target="QTXxaZ0U23KRBkYtwmUl-87">
            <mxGeometry width="100" height="100" relative="1" as="geometry">
              <Array as="points" />
            </mxGeometry>
          </mxCell>
        </UserObject>
        <UserObject label="Unsuccessfull registration" lucidchartObjectId="eDu15Msp5Ezq" id="QTXxaZ0U23KRBkYtwmUl-90">
          <mxCell style="html=1;whiteSpace=wrap;shape=document;fontSize=11;fontColor=#000000;spacing=3;strokeOpacity=100;fillColor=#E5CCFF;" vertex="1" parent="WIyWlLk6GJQsqaUBKTNV-1">
            <mxGeometry x="1979" y="1366" width="96" height="49" as="geometry" />
          </mxCell>
        </UserObject>
        <UserObject label="" lucidchartObjectId="eDu1Rkzljtcz" id="QTXxaZ0U23KRBkYtwmUl-91">
          <mxCell style="html=1;jettySize=18;fontSize=11;strokeOpacity=100;rounded=1;arcSize=0;edgeStyle=orthogonalEdgeStyle;startArrow=none;;endArrow=block;endFill=1;;exitX=1.00625;exitY=0.5000011700088123;exitPerimeter=1;entryX=-0.006250000000000089;entryY=0.5000000000000002;entryPerimeter=1;fillColor=#E5CCFF;" edge="1" parent="WIyWlLk6GJQsqaUBKTNV-1" source="QTXxaZ0U23KRBkYtwmUl-81" target="QTXxaZ0U23KRBkYtwmUl-90">
            <mxGeometry width="100" height="100" relative="1" as="geometry">
              <Array as="points" />
            </mxGeometry>
          </mxCell>
        </UserObject>
        <UserObject label="" lucidchartObjectId="eDu1KpS1ecnY" id="QTXxaZ0U23KRBkYtwmUl-92">
          <mxCell style="html=1;jettySize=18;fontSize=11;strokeOpacity=100;rounded=1;arcSize=0;edgeStyle=orthogonalEdgeStyle;startArrow=none;;endArrow=block;endFill=1;;exitX=1.00625;exitY=0.5016225079642872;exitPerimeter=1;entryX=0.5;entryY=-0.012163687979267975;entryPerimeter=1;fillColor=#E5CCFF;" edge="1" parent="WIyWlLk6GJQsqaUBKTNV-1" source="QTXxaZ0U23KRBkYtwmUl-90" target="QTXxaZ0U23KRBkYtwmUl-85">
            <mxGeometry width="100" height="100" relative="1" as="geometry">
              <Array as="points">
                <mxPoint x="2098" y="1391" />
                <mxPoint x="2098" y="1248" />
                <mxPoint x="1579" y="1248" />
              </Array>
            </mxGeometry>
          </mxCell>
        </UserObject>
        <UserObject label="Test" lucidchartObjectId="eDu1Icr1JWuM" id="QTXxaZ0U23KRBkYtwmUl-93">
          <mxCell style="html=1;whiteSpace=wrap;shape=tape;size=0.2;fontSize=11;fontColor=#000000;spacing=3;strokeOpacity=100;fillColor=#E5CCFF;" vertex="1" parent="WIyWlLk6GJQsqaUBKTNV-1">
            <mxGeometry x="1849" y="1508" width="96" height="49" as="geometry" />
          </mxCell>
        </UserObject>
        <UserObject label="" lucidchartObjectId="eDu1h0mOkSXN" id="QTXxaZ0U23KRBkYtwmUl-94">
          <mxCell style="html=1;jettySize=18;fontSize=11;strokeOpacity=100;rounded=1;arcSize=0;edgeStyle=orthogonalEdgeStyle;startArrow=none;;endArrow=block;endFill=1;;exitX=1.00625;exitY=0.5000009892331936;exitPerimeter=1;entryX=-0.006250000000000089;entryY=0.5;entryPerimeter=1;fillColor=#E5CCFF;" edge="1" parent="WIyWlLk6GJQsqaUBKTNV-1" source="QTXxaZ0U23KRBkYtwmUl-93" target="QTXxaZ0U23KRBkYtwmUl-95">
            <mxGeometry width="100" height="100" relative="1" as="geometry">
              <Array as="points" />
            </mxGeometry>
          </mxCell>
        </UserObject>
        <UserObject label="Successfull test" lucidchartObjectId="eDu10faUsAAB" id="QTXxaZ0U23KRBkYtwmUl-95">
          <mxCell style="html=1;whiteSpace=wrap;shape=document;fontSize=11;fontColor=#000000;spacing=3;strokeOpacity=100;fillColor=#E5CCFF;" vertex="1" parent="WIyWlLk6GJQsqaUBKTNV-1">
            <mxGeometry x="1981" y="1459" width="96" height="49" as="geometry" />
          </mxCell>
        </UserObject>
        <UserObject label="Unsuccessfull test" lucidchartObjectId="eDu1Rp56zRw2" id="QTXxaZ0U23KRBkYtwmUl-96">
          <mxCell style="html=1;whiteSpace=wrap;shape=document;fontSize=11;fontColor=#000000;spacing=3;strokeOpacity=100;fillColor=#E5CCFF;" vertex="1" parent="WIyWlLk6GJQsqaUBKTNV-1">
            <mxGeometry x="1981" y="1552" width="96" height="49" as="geometry" />
          </mxCell>
        </UserObject>
        <UserObject label="" lucidchartObjectId="eDu1OKT1cjSr" id="QTXxaZ0U23KRBkYtwmUl-97">
          <mxCell style="html=1;jettySize=18;fontSize=11;strokeOpacity=100;rounded=1;arcSize=0;edgeStyle=orthogonalEdgeStyle;startArrow=none;;endArrow=block;endFill=1;;exitX=1.00625;exitY=0.5000011700088123;exitPerimeter=1;entryX=-0.00625;entryY=0.5000000000000002;entryPerimeter=1;fillColor=#E5CCFF;" edge="1" parent="WIyWlLk6GJQsqaUBKTNV-1" source="QTXxaZ0U23KRBkYtwmUl-93" target="QTXxaZ0U23KRBkYtwmUl-96">
            <mxGeometry width="100" height="100" relative="1" as="geometry">
              <Array as="points" />
            </mxGeometry>
          </mxCell>
        </UserObject>
        <UserObject label="" lucidchartObjectId="eDu14PYcmgug" id="QTXxaZ0U23KRBkYtwmUl-98">
          <mxCell style="html=1;jettySize=18;fontSize=11;strokeOpacity=100;rounded=1;arcSize=0;edgeStyle=orthogonalEdgeStyle;startArrow=none;;endArrow=block;endFill=1;;exitX=1.00625;exitY=0.4999999993059001;exitPerimeter=1;entryX=-0.00625;entryY=0.5000009885393916;entryPerimeter=1;fillColor=#E5CCFF;" edge="1" parent="WIyWlLk6GJQsqaUBKTNV-1" source="QTXxaZ0U23KRBkYtwmUl-87" target="QTXxaZ0U23KRBkYtwmUl-93">
            <mxGeometry width="100" height="100" relative="1" as="geometry">
              <Array as="points" />
            </mxGeometry>
          </mxCell>
        </UserObject>
        <UserObject label="" lucidchartObjectId="eDu1Fm0s96aw" id="QTXxaZ0U23KRBkYtwmUl-99">
          <mxCell style="html=1;jettySize=18;fontSize=11;strokeOpacity=100;rounded=1;arcSize=0;edgeStyle=orthogonalEdgeStyle;startArrow=none;;endArrow=block;endFill=1;;exitX=1.00625;exitY=0.5016225079642872;exitPerimeter=1;entryX=0.5;entryY=-0.012163687979267975;entryPerimeter=1;fillColor=#E5CCFF;" edge="1" parent="WIyWlLk6GJQsqaUBKTNV-1" source="QTXxaZ0U23KRBkYtwmUl-95" target="QTXxaZ0U23KRBkYtwmUl-85">
            <mxGeometry width="100" height="100" relative="1" as="geometry">
              <Array as="points">
                <mxPoint x="2099" y="1484" />
                <mxPoint x="2099" y="1249" />
                <mxPoint x="1579" y="1249" />
              </Array>
            </mxGeometry>
          </mxCell>
        </UserObject>
        <UserObject label="" lucidchartObjectId="eDu1tTnCiesJ" id="QTXxaZ0U23KRBkYtwmUl-100">
          <mxCell style="html=1;jettySize=18;fontSize=11;strokeOpacity=100;rounded=1;arcSize=0;edgeStyle=orthogonalEdgeStyle;startArrow=none;;endArrow=block;endFill=1;;exitX=1.00625;exitY=0.501622507964288;exitPerimeter=1;entryX=0.5;entryY=-0.012163687979267975;entryPerimeter=1;fillColor=#E5CCFF;" edge="1" parent="WIyWlLk6GJQsqaUBKTNV-1" source="QTXxaZ0U23KRBkYtwmUl-96" target="QTXxaZ0U23KRBkYtwmUl-85">
            <mxGeometry width="100" height="100" relative="1" as="geometry">
              <Array as="points">
                <mxPoint x="2098" y="1577" />
                <mxPoint x="2098" y="1248" />
                <mxPoint x="1579" y="1248" />
              </Array>
            </mxGeometry>
          </mxCell>
        </UserObject>
        <UserObject label="" lucidchartObjectId="sDu1EFO61X92" id="QTXxaZ0U23KRBkYtwmUl-101">
          <mxCell style="html=1;jettySize=18;fontSize=11;strokeOpacity=100;rounded=1;arcSize=0;edgeStyle=orthogonalEdgeStyle;startArrow=none;;endArrow=block;endFill=1;;exitX=1.0062499999999996;exitY=0.5017780961115942;exitPerimeter=1;entryX=-0.00625;entryY=0.5000000000000002;entryPerimeter=1;fillColor=#E5CCFF;" edge="1" parent="WIyWlLk6GJQsqaUBKTNV-1" source="QTXxaZ0U23KRBkYtwmUl-47" target="QTXxaZ0U23KRBkYtwmUl-75">
            <mxGeometry width="100" height="100" relative="1" as="geometry">
              <Array as="points" />
            </mxGeometry>
          </mxCell>
        </UserObject>
      </root>
    </mxGraphModel>
  </diagram>
</mxfile>
